<svg width="18" height="21" viewBox="0 0 18 21" fill="none" xmlns="http://www.w3.org/2000/svg">
<path d="M17.5287 13.5786L15.7269 11.8411V7.55979C15.7508 5.96996 15.1742 4.42549 14.1033 3.21157C13.0325 1.99766 11.5398 1.19627 9.90092 0.955387C8.94976 0.835267 7.98282 0.911052 7.06463 1.17769C6.14643 1.44432 5.29808 1.89567 4.5762 2.50162C3.85432 3.10758 3.27549 3.8542 2.87835 4.69167C2.4812 5.52914 2.27487 6.4382 2.27312 7.3582V11.8411L0.471278 13.5786C0.244952 13.7993 0.0914728 14.079 0.0300267 14.3829C-0.0314194 14.6867 0.00189395 15.0012 0.125802 15.287C0.24971 15.5728 0.458715 15.8172 0.72669 15.9897C0.994664 16.1622 1.30972 16.2551 1.63247 16.2569H4.9959V16.5832C5.04266 17.5578 5.49036 18.4748 6.2409 19.1334C6.99144 19.7919 7.98361 20.1383 9 20.0966C10.0164 20.1383 11.0086 19.7919 11.7591 19.1334C12.5096 18.4748 12.9573 17.5578 13.0041 16.5832V16.2569H16.3675C16.6903 16.2551 17.0053 16.1622 17.2733 15.9897C17.5413 15.8172 17.7503 15.5728 17.8742 15.287C17.9981 15.0012 18.0314 14.6867 17.97 14.3829C17.9085 14.079 17.755 13.7993 17.5287 13.5786ZM11.002 16.5832C10.9465 17.045 10.7074 17.4684 10.3344 17.7652C9.96148 18.0621 9.48348 18.2095 9 18.1767C8.51652 18.2095 8.03852 18.0621 7.66556 17.7652C7.29261 17.4684 7.05347 17.045 6.99795 16.5832V16.2569H11.002V16.5832ZM2.50336 14.337L3.68456 13.2042C3.87192 13.0256 4.02057 12.8132 4.12193 12.5793C4.2233 12.3453 4.27538 12.0945 4.27517 11.8411V7.3582C4.27571 6.71062 4.4207 6.07065 4.7004 5.48124C4.98009 4.89182 5.38803 4.36659 5.89683 3.94081C6.39876 3.50469 6.99352 3.17837 7.63995 2.98445C8.28638 2.79052 8.96903 2.73362 9.64065 2.81767C10.7983 2.99793 11.8491 3.57316 12.5996 4.43746C13.35 5.30176 13.7496 6.39695 13.7248 7.52139V11.8411C13.7233 12.0938 13.7738 12.3443 13.8734 12.5782C13.9731 12.8121 14.1199 13.0249 14.3054 13.2042L15.4966 14.337H2.50336Z" fill="#616161"/>
<ellipse cx="14.1" cy="6" rx="3.3" ry="3.3" fill="white"/>
<ellipse cx="14.1" cy="6" rx="2.7" ry="2.7" fill="#03A9F4"/>
</svg>
