<svg width="40" height="40" viewBox="0 0 40 40" fill="none" xmlns="http://www.w3.org/2000/svg">
<path d="M24.6669 9.33322H16.2224V8.44434H24.6669V9.33322Z" fill="#03A9F4"/>
<path d="M21.1111 26.4445H19.1111V25.5557H21.1111V26.4445Z" fill="#03A9F4"/>
<path d="M12.2224 35.3333H8.22241V31.3333H12.2224V35.3333Z" fill="#03A9F4"/>
<path fill-rule="evenodd" clip-rule="evenodd" d="M15.4592 5.77765C14.2181 5.77765 13.3331 6.71821 13.3331 7.9654V13.0752C13.3149 13.0707 13.2965 13.0663 13.2779 13.062C13.1537 13.0335 12.9998 12.9999 12.8887 13.0399C12.7489 13.0846 12.6385 13.1929 12.5911 13.3318L12.2879 14.2202C11.8349 15.5785 11.5559 16.5024 11.3346 17.2354C11.3105 17.3153 11.2871 17.3929 11.2641 17.4685C11.0304 18.2407 10.8546 18.8015 10.5737 19.5028L10.5688 19.515L10.5647 19.5274C10.254 20.4585 10.1814 21.5611 10.1454 22.46C10.1392 22.6135 10.1342 22.7597 10.1294 22.8987C10.1198 23.179 10.1111 23.4297 10.0964 23.6503C10.0856 23.8131 10.0721 23.9464 10.0547 24.0512C10.0362 24.1625 10.0179 24.2118 10.0117 24.2241L9.96483 24.3179V24.3407L9.95842 24.3533C9.92809 24.4121 9.88181 24.4951 9.82221 24.5976C9.70381 24.8012 9.54426 25.0624 9.38262 25.3225C9.30061 25.4545 9.21855 25.5853 9.14175 25.7072L8.15075 24.6957L4.71509 28.2559L7.34711 30.9756L7.98587 30.3575L5.95121 28.255L8.15555 25.9707L15.2379 33.1998L15.8729 32.5777L15.6868 32.3878L15.7453 32.3301C15.9305 32.1473 16.1931 31.8892 16.5257 31.5652C18.8615 31.6675 20.4917 30.9031 21.5955 30.0124C22.5286 29.2593 23.0853 28.4088 23.3497 27.9999H25.0001C26.2004 27.9999 27.1109 27.1511 27.1109 25.9555V25.7487C27.2845 25.7807 27.4715 25.7903 27.6454 25.7563C27.802 25.7255 28.0187 25.6424 28.1487 25.4343L29.4037 23.9745C30.0399 23.2966 29.8793 22.1691 29.0616 21.527C28.8958 21.3968 28.7142 21.2923 28.5235 21.2205L29.4037 20.1967C30.0399 19.5188 29.8793 18.3913 29.0616 17.7492C28.8948 17.6182 28.7121 17.5132 28.5201 17.4415L29.4165 16.5042L29.4347 16.4788C30.0077 15.6803 29.8064 14.6942 29.2511 14.1141L29.2405 14.103L29.2291 14.0927C28.9853 13.8709 28.7293 13.7197 28.4694 13.6375L29.3979 12.6609L29.4171 12.6341C30.0187 11.7909 29.8073 10.7493 29.2243 10.1368L29.2131 10.125L29.2012 10.1141C28.7533 9.70443 28.2665 9.52278 27.7867 9.56022C27.5385 9.57958 27.3117 9.65602 27.1109 9.76802V7.9654C27.1109 6.71843 26.2268 5.77765 24.9855 5.77765H15.4592ZM26.0517 25.2071C26.1051 25.2608 26.1622 25.3106 26.2221 25.3566V25.9555C26.2221 26.6264 25.7439 27.111 25.0001 27.111H16.3558C16.4877 26.1663 16.4647 25.2692 16.3393 24.4443H25.4725C25.5912 24.7219 25.7851 24.9909 26.0517 25.2071ZM26.2221 23.7796V23.8218C26.2237 23.8594 26.23 23.9054 26.2441 23.9609C26.2919 24.1487 26.417 24.3639 26.6252 24.5277L26.6501 24.5472L26.672 24.5701C26.8106 24.7153 27.0433 24.8297 27.2603 24.8723C27.3439 24.8887 27.4069 24.8907 27.4465 24.8875L28.7441 23.3782L28.7521 23.3698C28.9659 23.1459 29.0055 22.6131 28.5127 22.2261C28.2939 22.0544 28.0759 21.9903 27.9005 22.0011C27.7358 22.0112 27.5693 22.0883 27.4283 22.285L27.4177 22.2997L26.2515 23.6741L26.2424 23.6837C26.2435 23.6825 26.2433 23.683 26.2423 23.6853C26.2386 23.6931 26.2248 23.7225 26.2221 23.7796ZM16.1597 23.5555H25.3561C25.3893 23.3838 25.4619 23.2186 25.5894 23.0806L26.6511 21.8293C26.4351 21.7356 26.2239 21.6025 26.0517 21.4293C25.7009 21.1449 25.4759 20.7687 25.3827 20.4023C25.2941 20.0543 25.3048 19.6108 25.5894 19.3028L26.6675 18.0323C26.4555 17.9301 26.2509 17.7837 26.0601 17.6056C25.7243 17.3378 25.488 17.0071 25.387 16.6636C25.2868 16.3227 25.3143 15.9255 25.5841 15.6297L26.6211 14.3237C26.3595 14.2163 26.1067 14.0429 25.8737 13.8241C25.5212 13.5413 25.2731 13.192 25.167 12.8293C25.0618 12.4693 25.0907 12.0497 25.3739 11.7373L26.2221 10.663V7.9654C26.2221 7.17852 25.7056 6.66654 24.9855 6.66654H15.4592C14.7389 6.66654 14.2221 7.17874 14.2221 7.9654V13.4512C14.4999 13.6223 14.7001 13.8041 14.8041 13.9265L14.8043 13.9267C15.2221 14.3332 15.7247 15.1895 15.611 16.5527C15.474 18.1959 15.3321 19.2307 14.8093 20.6054C15.3291 21.3147 15.8499 22.3315 16.1597 23.5555ZM15.0647 31.7529L15.1209 31.6975C15.3327 31.4884 15.6445 31.1821 16.0453 30.7923L16.1867 30.6549L16.3835 30.6675C18.5856 30.8079 20.0609 30.1086 21.0373 29.3207C21.5969 28.8691 21.9929 28.3913 22.2749 27.9999H16.1877C16.1059 28.3419 16.0029 28.6887 15.8765 29.0395L15.0402 28.7381C16.2757 25.3107 15.0357 22.3006 13.9575 20.9547L13.7954 20.7523L13.8918 20.5116C14.4447 19.1307 14.5843 18.1736 14.7266 16.4616L14.7281 16.4433L14.7311 16.4253C14.7348 14.81 13.6805 14.4187 13.153 14.4249L13.1475 14.452L13.1388 14.4782C12.6855 15.8367 12.4077 16.7565 12.1855 17.4925C12.1614 17.5723 12.1379 17.6501 12.1149 17.726C11.8812 18.4981 11.697 19.0875 11.4039 19.8208C11.1409 20.6168 11.0695 21.598 11.0336 22.4956C11.028 22.6352 11.0232 22.7742 11.0185 22.9099C11.0085 23.1995 10.999 23.4745 10.9833 23.7095C10.9717 23.8844 10.9559 24.0505 10.9316 24.1967C10.9116 24.3174 10.8822 24.4483 10.8321 24.5667L10.8305 24.5717C10.8221 24.5992 10.8125 24.6239 10.8045 24.6427C10.7885 24.6809 10.7686 24.7217 10.7486 24.7605C10.7079 24.8394 10.6527 24.9376 10.5906 25.0445C10.4656 25.2595 10.3005 25.5295 10.1376 25.7917C10.0125 25.993 9.8875 26.1915 9.78095 26.3597L15.0647 31.7529ZM26.08 12.3525L27.3283 10.7714C27.4919 10.6046 27.677 10.5103 27.8588 10.4962C28.0327 10.4826 28.2709 10.5367 28.5608 10.7973C28.866 11.1277 28.9534 11.6483 28.6759 12.0621L27.3565 13.4497C27.3065 13.494 27.2345 13.5225 27.1039 13.4954C26.9533 13.4641 26.7411 13.3572 26.4994 13.1273L26.4837 13.1123L26.4667 13.0989C26.2267 12.9097 26.1051 12.7104 26.0625 12.5645C26.0193 12.417 26.0626 12.3709 26.0651 12.3683L26.08 12.3525ZM27.4453 14.7151L26.2565 16.2123L26.2423 16.2271C26.2399 16.2295 26.1987 16.2732 26.2398 16.4129C26.2804 16.5511 26.3963 16.7398 26.6249 16.919L26.641 16.9317L26.656 16.9458C26.8862 17.1635 27.0883 17.2647 27.2316 17.2943C27.356 17.3201 27.4247 17.2931 27.4723 17.2511L28.7287 15.9372C28.9931 15.5453 28.9099 15.0525 28.6192 14.7396C28.3431 14.4929 28.1163 14.4416 27.9507 14.4545C27.7775 14.4679 27.6012 14.5571 27.4453 14.7151ZM27.4283 18.5072C27.5693 18.3105 27.7358 18.2334 27.9005 18.2233C28.0759 18.2125 28.2939 18.2766 28.5127 18.4483C29.0055 18.8353 28.9659 19.3681 28.7521 19.592L28.7441 19.6004L27.4465 21.1098C27.4069 21.1129 27.3439 21.1109 27.2603 21.0945C27.0433 21.0519 26.8106 20.9375 26.672 20.7923L26.6501 20.7695L26.6252 20.7499C26.417 20.5862 26.2919 20.3709 26.2441 20.1831C26.1981 20.0022 26.2358 19.9213 26.2423 19.9075C26.2433 19.9052 26.2435 19.9047 26.2424 19.9059L26.2515 19.8963L27.4177 18.5219L27.4283 18.5072ZM27.4833 21.1042L27.4851 21.1037L27.4861 21.1033L27.4857 21.1034L27.4849 21.1037L27.4833 21.1042ZM27.4861 24.8811C27.4861 24.8811 27.4852 24.8815 27.4833 24.882C27.485 24.8813 27.4861 24.8811 27.4861 24.8811Z" fill="#616161"/>
<path d="M7.46338 28.3143L8.13005 28.9809L8.75859 28.3524L8.09192 27.6857L7.46338 28.3143Z" fill="#616161"/>
</svg>
