<svg width="80" height="80" viewBox="0 0 80 80" fill="none" xmlns="http://www.w3.org/2000/svg">
<path d="M49.3336 18.6664H32.4447V16.8887H49.3336V18.6664Z" fill="#03A9F4"/>
<path d="M42.2224 52.8891H38.2224V51.1113H42.2224V52.8891Z" fill="#03A9F4"/>
<path d="M24.4447 70.6667H16.4447V62.6667H24.4447V70.6667Z" fill="#03A9F4"/>
<path fill-rule="evenodd" clip-rule="evenodd" d="M30.9185 11.5554C28.4364 11.5554 26.6664 13.4365 26.6664 15.9309V26.1505C26.6298 26.1414 26.593 26.1326 26.556 26.1241C26.3076 26.0672 25.9997 25.9998 25.7776 26.0798C25.498 26.1693 25.2772 26.3858 25.1824 26.6637L24.5758 28.4405C23.67 31.157 23.112 33.0049 22.6693 34.4709C22.621 34.6306 22.5742 34.7858 22.5284 34.937C22.0609 36.4816 21.7093 37.6032 21.1475 39.0057L21.1377 39.0301L21.1294 39.0549C20.5081 40.9172 20.363 43.1222 20.2909 44.9201C20.2786 45.227 20.2685 45.5196 20.2589 45.7976C20.2396 46.3581 20.2224 46.8594 20.1929 47.3008C20.1712 47.6262 20.1443 47.8929 20.1095 48.1025C20.0726 48.3252 20.0359 48.4237 20.0236 48.4482L19.9298 48.636V48.6816L19.917 48.7068C19.8563 48.8244 19.7637 48.9902 19.6445 49.1953C19.4078 49.6025 19.0886 50.1249 18.7654 50.6452C18.6013 50.909 18.4372 51.1708 18.2836 51.4145L16.3016 49.3914L9.4303 56.5118L14.6943 61.9513L15.9719 60.715L11.9026 56.5101L16.3112 51.9416L30.476 66.3997L31.7458 65.1556L31.3737 64.7757L31.4906 64.6604C31.861 64.2948 32.3864 63.7785 33.0514 63.1305C37.723 63.335 40.9836 61.8064 43.191 60.0249C45.0573 58.5188 46.1708 56.8177 46.6996 55.9998H50.0002C52.4009 55.9998 54.222 54.3022 54.222 51.9112V51.4974C54.5692 51.5614 54.9432 51.5808 55.2909 51.5126C55.6041 51.4512 56.0374 51.2849 56.2976 50.8688L58.8076 47.949C60.0798 46.5933 59.7588 44.3382 58.1233 43.0541C57.7917 42.7937 57.4285 42.5846 57.0472 42.4412L58.8076 40.3934C60.0798 39.0377 59.7588 36.7828 58.1233 35.4985C57.7897 35.2365 57.4242 35.0265 57.0404 34.883L58.833 33.0085L58.8696 32.9577C60.0156 31.3608 59.6129 29.3885 58.5024 28.2284L58.481 28.2061L58.4582 28.1854C57.9706 27.742 57.4588 27.4396 56.9389 27.2752L58.796 25.322L58.8342 25.2682C60.0376 23.5818 59.6148 21.4988 58.4488 20.2736L58.4264 20.2501L58.4025 20.2282C57.5066 19.409 56.5332 19.0457 55.5734 19.1206C55.077 19.1593 54.6234 19.3122 54.222 19.5362V15.9309C54.222 13.437 52.4537 11.5554 49.9712 11.5554H30.9185ZM52.1034 50.4144C52.2102 50.5217 52.3245 50.6213 52.4442 50.7133V51.9112C52.4442 53.2529 51.488 54.2221 50.0002 54.2221H32.7117C32.9754 52.3328 32.9296 50.5385 32.6788 48.8888H50.9452C51.1825 49.4438 51.5702 49.982 52.1034 50.4144ZM52.4442 47.5593V47.6437C52.4476 47.7189 52.4601 47.8109 52.4882 47.9218C52.584 48.2976 52.8341 48.728 53.2505 49.0554L53.3004 49.0945L53.3441 49.1404C53.6213 49.4308 54.0868 49.6596 54.5206 49.7446C54.6878 49.7774 54.8138 49.7814 54.8932 49.7752L57.4884 46.7565L57.5044 46.7397C57.932 46.2918 58.011 45.2262 57.0254 44.4524C56.588 44.1089 56.152 43.9806 55.801 44.0022C55.4717 44.0225 55.1386 44.1768 54.8566 44.5701L54.8356 44.5996L52.5032 47.3484L52.4849 47.3674C52.4872 47.3652 52.4866 47.3661 52.4846 47.3706C52.4773 47.3864 52.4497 47.4452 52.4442 47.5593ZM32.3196 47.111H50.7122C50.7788 46.7677 50.9238 46.4373 51.1789 46.1613L53.3022 43.6588C52.8704 43.4713 52.448 43.2052 52.1034 42.8588C51.4018 42.2898 50.952 41.5376 50.7654 40.8048C50.5882 40.1086 50.6097 39.2217 51.1789 38.6057L53.335 36.0646C52.911 35.8602 52.5018 35.5674 52.1202 35.2113C51.4488 34.6757 50.9761 34.0142 50.7741 33.3273C50.5737 32.6456 50.6288 31.851 51.1682 31.2594L53.2422 28.6476C52.719 28.4328 52.2136 28.0858 51.7476 27.6482C51.0425 27.0826 50.5462 26.3841 50.3341 25.6586C50.1237 24.9386 50.1816 24.0996 50.7478 23.4748L52.4442 21.3261V15.9309C52.4442 14.3572 51.4113 13.3332 49.9712 13.3332H30.9185C29.4778 13.3332 28.4442 14.3576 28.4442 15.9309V26.9025C29 27.2448 29.4004 27.6084 29.6082 27.853L29.6086 27.8534C30.4442 28.6665 31.4494 30.3792 31.2221 33.1056C30.9481 36.392 30.6644 38.4616 29.6188 41.2109C30.6584 42.6296 31.7 44.6632 32.3196 47.111ZM30.1296 63.5058L30.2418 63.395C30.6654 62.9769 31.2892 62.3642 32.0908 61.5848L32.3736 61.3098L32.767 61.335C37.1713 61.616 40.122 60.2173 42.0746 58.6414C43.1938 57.7382 43.9858 56.7826 44.55 55.9998H32.3754C32.2118 56.6838 32.0058 57.3776 31.753 58.079L30.0805 57.4762C32.5514 50.6214 30.0716 44.6013 27.9152 41.9094L27.5909 41.5048L27.7837 41.0233C28.8894 38.2616 29.1686 36.3473 29.4533 32.9233L29.4564 32.8868L29.4624 32.8506C29.4697 29.6201 27.3612 28.8374 26.3061 28.8498L26.2952 28.9041L26.2777 28.9565C25.371 31.6736 24.8156 33.5132 24.371 34.985C24.3229 35.1448 24.2758 35.3004 24.23 35.4521C23.7625 36.9964 23.3941 38.1752 22.8078 39.6417C22.2818 41.2337 22.1392 43.1961 22.0673 44.9913C22.0561 45.2705 22.0465 45.5485 22.037 45.82C22.0172 46.399 21.9981 46.9492 21.9668 47.419C21.9434 47.7689 21.9118 48.1012 21.8633 48.3936C21.8233 48.6349 21.7645 48.8968 21.6642 49.1334L21.6612 49.1436C21.6444 49.1985 21.625 49.2478 21.6092 49.2856C21.5772 49.362 21.5373 49.4434 21.4973 49.521C21.4158 49.6789 21.3056 49.8753 21.1814 50.089C20.9312 50.519 20.6012 51.0592 20.2753 51.5834C20.0251 51.9861 19.7751 52.383 19.562 52.7194L30.1296 63.5058ZM52.1601 24.7052L54.6566 21.5429C54.984 21.2092 55.3541 21.0208 55.7177 20.9924C56.0656 20.9653 56.542 21.0736 57.1217 21.5946C57.7321 22.2556 57.9069 23.2966 57.3518 24.1244L54.7132 26.8996C54.6132 26.9881 54.469 27.0452 54.2078 26.9909C53.9068 26.9282 53.4824 26.7145 52.9989 26.2546L52.9676 26.2248L52.9336 26.198C52.4536 25.8194 52.2102 25.4209 52.125 25.129C52.0388 24.8341 52.1253 24.7418 52.1302 24.7366L52.1601 24.7052ZM54.8908 29.4302L52.5132 32.4246L52.4846 32.4542C52.48 32.4592 52.3976 32.5465 52.4797 32.8258C52.5609 33.1022 52.7926 33.4797 53.2498 33.8381L53.2821 33.8634L53.3121 33.8917C53.7725 34.3272 54.1768 34.5296 54.4633 34.5888C54.7121 34.6402 54.8494 34.5862 54.9446 34.5024L57.4576 31.8745C57.9864 31.0908 57.82 30.105 57.2385 29.4793C56.6864 28.9858 56.2326 28.8833 55.9014 28.909C55.5552 28.9358 55.2025 29.1142 54.8908 29.4302ZM54.8566 37.0145C55.1386 36.6212 55.4717 36.4669 55.801 36.4466C56.152 36.4252 56.588 36.5533 57.0254 36.8968C58.011 37.6706 57.932 38.7364 57.5044 39.1841L57.4884 39.2009L54.8932 42.2197C54.8138 42.2258 54.6878 42.222 54.5206 42.1892C54.0868 42.104 53.6213 41.8752 53.3441 41.5848L53.3004 41.539L53.2505 41.4998C52.8341 41.1725 52.584 40.742 52.4882 40.3662C52.3962 40.0045 52.4717 39.8428 52.4846 39.815C52.4866 39.8105 52.4872 39.8096 52.4849 39.8118L52.5032 39.7928L54.8356 37.044L54.8566 37.0145ZM54.9666 42.2085L54.9704 42.2074L54.9722 42.2068L54.9714 42.2069L54.9698 42.2074L54.9666 42.2085ZM54.9722 49.7624C54.9722 49.7624 54.9705 49.763 54.9666 49.7641C54.9701 49.7628 54.9722 49.7624 54.9722 49.7624Z" fill="white"/>
<path d="M14.9269 56.6284L16.2602 57.9617L17.5173 56.7047L16.184 55.3713L14.9269 56.6284Z" fill="white"/>
</svg>
