<svg width="80" height="80" viewBox="0 0 80 80" fill="none" xmlns="http://www.w3.org/2000/svg">
<path fill-rule="evenodd" clip-rule="evenodd" d="M49.5998 37.6886C48.7681 36.5796 47.4426 36.5526 46.1217 36.8097C44.8249 37.0621 43.1326 37.6668 41.0542 38.4093L40.812 38.4958C39.036 39.1302 35.496 40.2249 32.904 41.0264L32.9033 41.0265C32.205 41.2425 31.5757 41.437 31.0681 41.5957C30.9118 41.6445 30.7721 41.7356 30.6642 41.8588L26.2632 46.8885L25.3332 46.8887V44.4441H15.5554V56.8887H17.3332V46.222H23.5554V63.1108H21.7777V64.8887H25.3332V61.7775H44.2221C44.2433 61.7775 44.2644 61.7768 44.2854 61.7752C45.384 61.6968 48.5941 61.2705 52.0453 60.1807C52.4409 60.0557 52.8245 59.9353 53.195 59.8189L53.1956 59.8188C54.3968 59.4415 55.4614 59.1071 56.358 58.8025C57.5149 58.4095 58.4769 58.0389 59.1238 57.6508C59.2089 57.5999 59.2846 57.5351 59.3482 57.4591L68.4594 46.5701C68.7124 46.2677 68.736 45.8348 68.5173 45.5066C67.7602 44.371 65.3009 42.555 62.1632 43.6009C61.0744 43.9638 60.0101 44.8069 59.0162 45.7818C58.0696 46.7105 57.1082 47.8393 56.1678 48.9837L49.367 50.6324L43.6286 48.788L42.3317 47.2316C42.5297 47.1472 42.7284 47.0631 42.928 46.9785C43.3949 46.7809 43.8673 46.5809 44.3504 46.3697C45.3698 45.9241 46.3666 45.4576 47.1377 44.9757C48.1973 44.3135 49.1961 43.1096 49.7582 41.8292C50.3094 40.5737 50.5521 38.9582 49.5998 37.6886ZM25.3332 59.9997H44.1896C45.1976 59.9239 48.2397 59.5181 51.51 58.4855C51.9149 58.3576 52.3044 58.2352 52.6784 58.1177C53.874 57.7423 54.9109 57.4165 55.7862 57.1192C56.8545 56.7563 57.6102 56.4585 58.0864 56.1968L66.6013 46.0204C65.8689 45.3916 64.4544 44.7112 62.7254 45.2874C62.0365 45.517 61.2118 46.1185 60.2613 47.0509C59.3272 47.9672 58.3541 49.1187 57.3545 50.3404C57.232 50.4901 57.064 50.5957 56.876 50.6413L49.5426 52.4192C49.3836 52.4577 49.217 52.4516 49.0612 52.4015L42.839 50.4015C42.6785 50.35 42.536 50.2539 42.4281 50.1243L40.206 47.4576C40.0276 47.2436 39.9598 46.9583 40.023 46.6869C40.0862 46.4155 40.2732 46.1895 40.5277 46.0763C41.0736 45.8337 41.6757 45.5785 42.269 45.3269C42.742 45.1264 43.2097 44.9281 43.6382 44.7408C44.6522 44.2976 45.5442 43.875 46.1954 43.4681C46.9136 43.0193 47.6925 42.112 48.1304 41.1146C48.5792 40.0924 48.5588 39.2633 48.1777 38.7553C48.0093 38.5309 47.6682 38.3198 46.4614 38.5548C45.2994 38.7809 43.7168 39.3462 41.5182 40.1314L41.41 40.1701C39.5928 40.8192 35.9874 41.9338 33.3956 42.7352C32.8148 42.9148 32.2846 43.0788 31.8372 43.2181L27.3356 48.3628C27.1668 48.5557 26.9229 48.6664 26.6665 48.6664H25.3332V59.9997Z" fill="white"/>
<path fill-rule="evenodd" clip-rule="evenodd" d="M51.1111 15.3331C51.1111 12.265 53.598 9.77759 56.666 9.77759C59.7352 9.77759 62.2223 12.2648 62.2223 15.3331C62.2223 18.4015 59.7352 20.8887 56.666 20.8887C53.598 20.8887 51.1111 18.4013 51.1111 15.3331ZM56.666 11.5554C54.58 11.5554 52.8889 13.2466 52.8889 15.3331C52.8889 17.4197 54.58 19.1109 56.666 19.1109C58.7534 19.1109 60.4444 17.4195 60.4444 15.3331C60.4444 13.2468 58.7534 11.5554 56.666 11.5554Z" fill="#03A9F4"/>
<path fill-rule="evenodd" clip-rule="evenodd" d="M43.7784 20.4441C40.7103 20.4441 38.2223 22.9313 38.2223 25.9997C38.2223 29.068 40.7103 31.5552 43.7784 31.5552C46.8467 31.5552 49.3333 29.0678 49.3333 25.9997C49.3333 22.9315 46.8467 20.4441 43.7784 20.4441ZM40 25.9997C40 23.9134 41.6919 22.2219 43.7784 22.2219C45.8647 22.2219 47.5556 23.9131 47.5556 25.9997C47.5556 28.0862 45.8647 29.7774 43.7784 29.7774C41.6918 29.7774 40 28.0859 40 25.9997Z" fill="#03A9F4"/>
<path fill-rule="evenodd" clip-rule="evenodd" d="M61.9993 26.2222C58.9313 26.2222 56.4443 28.7099 56.4443 31.7776C56.4443 34.8455 58.9313 37.3332 61.9993 37.3332C65.0685 37.3332 67.5555 34.8458 67.5555 31.7776C67.5555 28.7096 65.0685 26.2222 61.9993 26.2222ZM58.2222 31.7776C58.2222 29.6914 59.9134 27.9999 61.9993 27.9999C64.0866 27.9999 65.7777 29.6915 65.7777 31.7776C65.7777 33.8639 64.0866 35.5555 61.9993 35.5555C59.9134 35.5555 58.2222 33.864 58.2222 31.7776Z" fill="#03A9F4"/>
<path d="M20 66.6667H12V58.6667H20V66.6667Z" fill="#03A9F4"/>
</svg>
