<svg width="16" height="16" viewBox="0 0 16 16" fill="none" xmlns="http://www.w3.org/2000/svg">
<path d="M8.0108 0C9.10481 0 10.1413 0.208446 11.1201 0.625337C12.099 1.04223 12.9483 1.61006 13.668 2.32884C14.3878 3.04762 14.9564 3.89578 15.3738 4.87332C15.7913 5.85085 16 6.89308 16 8C16 9.10692 15.7913 10.142 15.3738 11.1051C14.9564 12.0683 14.3878 12.9164 13.668 13.6496C12.9483 14.3827 12.099 14.9578 11.1201 15.3747C10.1413 15.7916 9.10121 16 8 16C6.89879 16 5.86595 15.7916 4.90148 15.3747C3.93702 14.9578 3.08772 14.3827 2.35358 13.6496C1.61943 12.9164 1.04363 12.0683 0.626181 11.1051C0.208727 10.142 0 9.10692 0 8C0 6.89308 0.208727 5.85085 0.626181 4.87332C1.04363 3.89578 1.61943 3.04762 2.35358 2.32884C3.08772 1.61006 3.93702 1.04223 4.90148 0.625337C5.86595 0.208446 6.90238 0 8.0108 0ZM8.0108 2.52291C8.0108 2.36478 7.96041 2.2354 7.85965 2.13477C7.75888 2.03414 7.62213 1.9982 7.44939 2.02695C6.68646 2.09883 5.97391 2.30009 5.31174 2.63073C4.64957 2.96137 4.07377 3.39982 3.58435 3.94609C3.09492 4.49236 2.71345 5.10332 2.43995 5.77898C2.16644 6.45463 2.02249 7.19497 2.0081 8C1.9937 8.80503 2.13765 9.53819 2.43995 10.1995C2.74224 10.8607 3.12371 11.4789 3.58435 12.0539C4.04498 12.6289 4.62078 13.0602 5.31174 13.3477C6.0027 13.6352 6.71525 13.8437 7.44939 13.973C7.60774 13.9874 7.74449 13.9443 7.85965 13.8437C7.97481 13.743 8.02519 13.6208 8.0108 13.4771V2.52291Z" fill="#303030"/>
</svg>
