<svg width="33" height="32" viewBox="0 0 33 32" fill="none" xmlns="http://www.w3.org/2000/svg">
<path d="M28.0783 8.6035L19.6601 0.18525C19.5415 0.066625 19.3807 0 19.2128 0H7.35078C5.91022 0 4.73828 1.17194 4.73828 2.6125V29.3875C4.73828 30.8281 5.91022 32 7.35078 32H25.651C27.0916 32 28.2635 30.8281 28.2635 29.3875V9.05069C28.2635 8.883 28.1969 8.72206 28.0783 8.6035ZM19.8453 2.15931L26.1043 8.41813H21.1929C20.4498 8.41813 19.8454 7.81362 19.8454 7.0705V2.15931H19.8453ZM26.9987 29.3875C26.9987 30.1306 26.3942 30.7351 25.651 30.7351H7.35078C6.60772 30.7351 6.00316 30.1306 6.00316 29.3875V2.6125C6.00316 1.86944 6.60772 1.26488 7.35078 1.26488H18.5804V7.07062C18.5804 8.51119 19.7523 9.68312 21.1928 9.68312H26.9987V29.3875Z" fill="#616161"/>
<g clip-path="url(#clip0)">
<path d="M15.2894 12.5588L10.8134 15.2833H7.99804C7.72299 15.2833 7.5 15.5063 7.5 15.7814V23.2187C7.5 23.4938 7.72299 23.7168 7.99804 23.7168H10.8134L15.2894 26.4413C16.2853 27.0475 17.5604 26.3314 17.5604 25.165V13.8351C17.5604 12.6691 16.2856 11.9524 15.2894 12.5588ZM8.49607 16.2794H10.455V22.7207H8.49607V16.2794ZM16.5643 25.165C16.5643 25.5534 16.1397 25.7928 15.8073 25.5905L11.4511 22.9388V16.0613L15.8073 13.4097C16.1391 13.2077 16.5643 13.4459 16.5643 13.8351V25.165Z" fill="#03A9F4"/>
<path d="M18.9779 18.2088C18.7834 18.4033 18.7834 18.7186 18.9779 18.9131C19.3023 19.2375 19.3023 19.7626 18.9779 20.087C18.7834 20.2815 18.7834 20.5968 18.9779 20.7913C19.1724 20.9858 19.4877 20.9858 19.6822 20.7913C20.3942 20.0793 20.3942 18.9208 19.6822 18.2088C19.4877 18.0143 19.1724 18.0143 18.9779 18.2088Z" fill="#03A9F4"/>
<path d="M21.1842 16.7062C20.9897 16.5117 20.6744 16.5117 20.4799 16.7062C20.2854 16.9007 20.2854 17.216 20.4799 17.4105C21.632 18.5627 21.632 20.4374 20.4799 21.5895C20.2854 21.7841 20.2854 22.0994 20.4799 22.2939C20.6743 22.4884 20.9897 22.4884 21.1842 22.2939C22.7247 20.7533 22.7247 18.2467 21.1842 16.7062Z" fill="#03A9F4"/>
<path d="M22.6861 15.2036C22.4917 15.0091 22.1763 15.0091 21.9818 15.2036C21.7873 15.3981 21.7873 15.7134 21.9818 15.9079C23.9961 17.9222 23.9961 21.0779 21.9818 23.0921C21.7873 23.2866 21.7873 23.6019 21.9818 23.7964C22.1763 23.9909 22.4916 23.991 22.6861 23.7964C25.1024 21.3802 25.105 17.6224 22.6861 15.2036Z" fill="#03A9F4"/>
</g>
<defs>
<clipPath id="clip0">
<rect width="17" height="17" fill="white" transform="translate(7.5 11)"/>
</clipPath>
</defs>
</svg>
