<svg width="33" height="32" viewBox="0 0 33 32" fill="none" xmlns="http://www.w3.org/2000/svg">
<path d="M28.0783 8.6035L19.6601 0.18525C19.5415 0.066625 19.3807 0 19.2128 0H7.35078C5.91022 0 4.73828 1.17194 4.73828 2.6125V29.3875C4.73828 30.8281 5.91022 32 7.35078 32H25.651C27.0916 32 28.2635 30.8281 28.2635 29.3875V9.05069C28.2635 8.883 28.1969 8.72206 28.0783 8.6035ZM19.8453 2.15931L26.1043 8.41813H21.1929C20.4498 8.41813 19.8454 7.81362 19.8454 7.0705V2.15931H19.8453ZM26.9987 29.3875C26.9987 30.1306 26.3942 30.7351 25.651 30.7351H7.35078C6.60772 30.7351 6.00316 30.1306 6.00316 29.3875V2.6125C6.00316 1.86944 6.60772 1.26488 7.35078 1.26488H18.5804V7.07062C18.5804 8.51119 19.7523 9.68312 21.1928 9.68312H26.9987V29.3875Z" fill="#616161"/>
<g clip-path="url(#clip0)">
<path d="M17.319 12.6146C17.205 12.5206 17.054 12.4816 16.908 12.5086L8.908 14.0086C8.671 14.0526 8.5 14.2586 8.5 14.4996V25.4996C8.5 25.7396 8.671 25.9466 8.908 25.9906L16.908 27.4906C16.938 27.4966 16.97 27.4996 17 27.4996C17.115 27.4996 17.229 27.4596 17.319 27.3846C17.434 27.2896 17.5 27.1476 17.5 26.9996V12.9996C17.5 12.8506 17.434 12.7096 17.319 12.6146ZM16.5 26.3966L9.5 25.0846V14.9146L16.5 13.6026V26.3966Z" fill="#03A9F4"/>
<path d="M24 14.4998H17C16.724 14.4998 16.5 14.7238 16.5 14.9998C16.5 15.2758 16.724 15.4998 17 15.4998H23.5V24.4998H17C16.724 24.4998 16.5 24.7238 16.5 24.9998C16.5 25.2758 16.724 25.4998 17 25.4998H24C24.276 25.4998 24.5 25.2758 24.5 24.9998V14.9998C24.5 14.7238 24.276 14.4998 24 14.4998Z" fill="#03A9F4"/>
<path d="M19 16.4998H17C16.724 16.4998 16.5 16.7238 16.5 16.9998C16.5 17.2758 16.724 17.4998 17 17.4998H19C19.276 17.4998 19.5 17.2758 19.5 16.9998C19.5 16.7238 19.276 16.4998 19 16.4998Z" fill="#03A9F4"/>
<path d="M19 18.4998H17C16.724 18.4998 16.5 18.7238 16.5 18.9998C16.5 19.2758 16.724 19.4998 17 19.4998H19C19.276 19.4998 19.5 19.2758 19.5 18.9998C19.5 18.7238 19.276 18.4998 19 18.4998Z" fill="#03A9F4"/>
<path d="M19 20.4996H17C16.724 20.4996 16.5 20.7236 16.5 20.9996C16.5 21.2756 16.724 21.4996 17 21.4996H19C19.276 21.4996 19.5 21.2756 19.5 20.9996C19.5 20.7236 19.276 20.4996 19 20.4996Z" fill="#03A9F4"/>
<path d="M19 22.4996H17C16.724 22.4996 16.5 22.7236 16.5 22.9996C16.5 23.2756 16.724 23.4996 17 23.4996H19C19.276 23.4996 19.5 23.2756 19.5 22.9996C19.5 22.7236 19.276 22.4996 19 22.4996Z" fill="#03A9F4"/>
<path d="M22 16.4998H21C20.724 16.4998 20.5 16.7238 20.5 16.9998C20.5 17.2758 20.724 17.4998 21 17.4998H22C22.276 17.4998 22.5 17.2758 22.5 16.9998C22.5 16.7238 22.276 16.4998 22 16.4998Z" fill="#03A9F4"/>
<path d="M22 18.4998H21C20.724 18.4998 20.5 18.7238 20.5 18.9998C20.5 19.2758 20.724 19.4998 21 19.4998H22C22.276 19.4998 22.5 19.2758 22.5 18.9998C22.5 18.7238 22.276 18.4998 22 18.4998Z" fill="#03A9F4"/>
<path d="M22 20.4996H21C20.724 20.4996 20.5 20.7236 20.5 20.9996C20.5 21.2756 20.724 21.4996 21 21.4996H22C22.276 21.4996 22.5 21.2756 22.5 20.9996C22.5 20.7236 22.276 20.4996 22 20.4996Z" fill="#03A9F4"/>
<path d="M22 22.4996H21C20.724 22.4996 20.5 22.7236 20.5 22.9996C20.5 23.2756 20.724 23.4996 21 23.4996H22C22.276 23.4996 22.5 23.2756 22.5 22.9996C22.5 22.7236 22.276 22.4996 22 22.4996Z" fill="#03A9F4"/>
<path d="M15.3769 21.6707L11.8769 17.6707C11.6929 17.4617 11.3779 17.4417 11.1709 17.6237C10.9629 17.8057 10.9419 18.1217 11.1239 18.3287L14.6239 22.3287C14.7229 22.4417 14.8609 22.4997 14.9999 22.4997C15.1169 22.4997 15.2339 22.4587 15.3299 22.3757C15.5379 22.1937 15.5589 21.8787 15.3769 21.6707Z" fill="#03A9F4"/>
<path d="M15.307 17.1057C15.089 16.9347 14.775 16.9757 14.605 17.1927L11.105 21.6927C10.936 21.9107 10.975 22.2257 11.193 22.3947C11.285 22.4657 11.393 22.4997 11.5 22.4997C11.648 22.4997 11.796 22.4337 11.894 22.3077L15.394 17.8077C15.564 17.5887 15.525 17.2747 15.307 17.1057Z" fill="#03A9F4"/>
</g>
<defs>
<clipPath id="clip0">
<rect width="16" height="16" fill="white" transform="translate(8.5 12)"/>
</clipPath>
</defs>
</svg>
