<svg width="32" height="32" viewBox="0 0 32 32" fill="none" xmlns="http://www.w3.org/2000/svg">
<path d="M22.5936 3.33353H10V2.44464H22.7801L23.0973 2.57774L26.0949 5.63139L26.2222 5.94274V20.2224H25.3333V6.12443L22.5936 3.33353Z" fill="#616161"/>
<path d="M6.88887 29.1113V6.44464H6V29.5557L6.44445 30.0002H9.11113V29.1113H6.88887Z" fill="#616161"/>
<path fill-rule="evenodd" clip-rule="evenodd" d="M21.2503 14.6784C20.8603 14.1687 20.2675 13.9542 19.7513 14.0082C19.4923 14.0352 19.2313 14.1326 19.0283 14.3202C18.8179 14.5146 18.693 14.7862 18.693 15.1016V15.715C18.693 17.2467 18.1785 18.3696 17.2158 19.6766L15.4874 20.7888H14.6667V19.7778L14.2222 19.3334H10.4445L10 19.7778V30.4445L10.4445 30.8889H14.2222L14.6667 30.4445V30H14.8252C15.1337 30 15.2596 30.0389 15.3145 30.064C15.3587 30.0842 15.3749 30.0989 15.434 30.1525C15.4539 30.1706 15.4787 30.1932 15.5112 30.2219C15.6419 30.3375 15.8109 30.4594 16.0993 30.5444C16.3691 30.624 16.7278 30.6667 17.2378 30.6667H22.5877C22.6288 30.7193 22.6724 30.7692 22.7178 30.816C23.0009 31.1081 23.4058 31.3334 23.8517 31.3334H25.0373C25.4831 31.3334 25.8881 31.1081 26.1711 30.816C26.4549 30.5231 26.6667 30.1116 26.6667 29.6664V28.8544C26.9777 28.7868 27.2607 28.6259 27.4798 28.424C27.7691 28.1574 28 27.7688 28 27.3331V26.3232C28.0515 26.2848 28.1004 26.2442 28.1465 26.2016C28.4357 25.935 28.6667 25.5465 28.6667 25.1108C28.6667 24.6752 28.4357 24.2867 28.1464 24.0202C28.0127 23.8971 27.8553 23.7893 27.6822 23.7086C27.8721 23.4448 28 23.1217 28 22.7775C28 22.3296 27.7832 21.9174 27.4949 21.6254C27.2071 21.3336 26.7976 21.1112 26.3494 21.1112H24.5401C24.0917 21.1112 23.6821 21.3336 23.3941 21.6253C23.1057 21.9174 22.8889 22.3296 22.8889 22.7775C22.8889 23.2256 23.1056 23.638 23.394 23.9302C23.5243 24.0622 23.6793 24.1799 23.8517 24.2694C23.6759 24.5065 23.5555 24.7964 23.5555 25.1108C23.5555 25.4216 23.6731 25.7085 23.8455 25.9442C23.6833 26.0233 23.5356 26.1261 23.4091 26.2426C23.1199 26.509 22.8889 26.8975 22.8889 27.3331C22.8889 27.6456 23.0076 27.9338 23.1815 28.1702C23.0062 28.2609 22.849 28.3818 22.7179 28.5169C22.434 28.8097 22.2222 29.2211 22.2222 29.6664C22.2222 29.7038 22.2237 29.741 22.2266 29.7778H17.2378C16.7679 29.7778 16.5047 29.7372 16.3506 29.6918C16.215 29.6518 16.1578 29.607 16.1001 29.556C16.0915 29.5484 16.0813 29.539 16.0695 29.528L16.0691 29.5276C15.9978 29.461 15.8673 29.3393 15.6841 29.2556C15.4655 29.1556 15.1955 29.1112 14.8252 29.1112H14.6667V21.6777H15.618L15.8585 21.607L17.7651 20.3802L17.8812 20.2718C18.9405 18.8484 19.5819 17.5304 19.5819 15.715V15.1016C19.5819 15.0338 19.6036 14.9988 19.6316 14.973C19.667 14.9402 19.7359 14.9035 19.8437 14.8922C20.0608 14.8696 20.3479 14.9617 20.5444 15.2187L20.5447 15.219C20.8249 15.5849 21.0135 15.8865 21.138 16.2442C21.2631 16.6035 21.3333 17.0484 21.3333 17.7075C21.3333 18.3636 21.2639 18.8321 21.1955 19.1717C21.1705 19.2958 21.1465 19.399 21.1241 19.4958C21.1147 19.5361 21.1056 19.5753 21.0968 19.6144C21.0705 19.731 21.0401 19.8732 21.0401 20.0064V21.7816C20.4593 23.7288 19.6296 25.3552 17.9454 26.0321L18.2769 26.8568C20.3883 26.0082 21.3184 23.9824 21.9109 21.9716L21.929 21.846V20.0064C21.929 19.9864 21.9353 19.9371 21.964 19.8096C21.9674 19.7942 21.9712 19.7779 21.9751 19.7606L21.9871 19.7094L21.9871 19.7088C22.0104 19.6087 22.0392 19.4846 22.0669 19.3472C22.1451 18.9589 22.2222 18.4312 22.2222 17.7075C22.2222 16.987 22.1459 16.4356 21.9775 15.952C21.8087 15.4668 21.557 15.0788 21.2503 14.6784ZM27.0161 26.6667C27.0479 26.6667 27.0796 26.6656 27.1111 26.6636V27.3331C27.1111 27.453 27.0405 27.6201 26.8775 27.7703C26.7169 27.9183 26.5187 28 26.3494 28H24.5395C24.3701 28 24.172 27.9183 24.0114 27.7703C23.8485 27.6201 23.7778 27.453 23.7778 27.3331C23.7778 27.2135 23.8483 27.0466 24.0114 26.8964C24.172 26.7484 24.3701 26.6667 24.5395 26.6667H25.1425V26.6653C25.1637 26.6662 25.1849 26.6667 25.2061 26.6667H27.0161ZM26.3494 24.4445C26.3705 24.4445 26.3915 24.444 26.4123 24.443V24.4445H27.0161C27.1855 24.4445 27.3836 24.5262 27.5442 24.6741C27.7072 24.8242 27.7778 24.9911 27.7778 25.1108C27.7778 25.2306 27.7071 25.3978 27.5441 25.548C27.3835 25.696 27.1853 25.7778 27.0161 25.7778H25.2061C25.0369 25.7778 24.8388 25.696 24.6781 25.548C24.5151 25.3978 24.4445 25.2306 24.4445 25.1108C24.4445 24.9911 24.515 24.8242 24.678 24.6741C24.8386 24.5262 25.0367 24.4445 25.2061 24.4445H26.3494ZM26.3494 23.5556H24.5401C24.3849 23.5556 24.1911 23.4724 24.0267 23.3058C23.8626 23.1396 23.7778 22.9407 23.7778 22.7775C23.7778 22.6148 23.8625 22.416 24.0266 22.2498C24.1911 22.0833 24.3848 22 24.5401 22H26.3494C26.5043 22 26.6979 22.0832 26.8623 22.2498C27.0264 22.416 27.1111 22.6148 27.1111 22.7775C27.1111 22.9407 27.0263 23.1396 26.8623 23.3058C26.6979 23.4725 26.5043 23.5556 26.3494 23.5556ZM10.8889 30V20.2222H13.7778V30H10.8889ZM24.4447 28.8889V28.8858C24.4761 28.8879 24.5077 28.8889 24.5395 28.8889H25.7778V29.6664C25.7778 29.8321 25.6933 30.0318 25.5327 30.1974C25.3714 30.3639 25.1839 30.4445 25.0373 30.4445H23.8517C23.705 30.4445 23.5175 30.3639 23.3561 30.1974C23.1957 30.0318 23.1111 29.8321 23.1111 29.6664C23.1111 29.5007 23.1956 29.3012 23.356 29.1357C23.5173 28.9694 23.7048 28.8889 23.8517 28.8889H24.4447Z" fill="#616161"/>
<path d="M21.3333 4.22205V6.88868L21.7777 7.33315H24.4444V6.44426H22.2221V4.22205H21.3333Z" fill="#616161"/>
<path d="M9.11108 5.55536H5.11108V1.55536H9.11108V5.55536Z" fill="#03A9F4"/>
<path d="M11.1111 9.11122H20.8889V8.22229H11.1111V9.11122Z" fill="#03A9F4"/>
<path d="M11.1111 11.7779H20.8889V10.889H11.1111V11.7779Z" fill="#03A9F4"/>
<path d="M16 14.4446H11.1111V13.5557H16V14.4446Z" fill="#03A9F4"/>
</svg>
