<svg width="32" height="32" viewBox="0 0 32 32" fill="none" xmlns="http://www.w3.org/2000/svg">
<path fill-rule="evenodd" clip-rule="evenodd" d="M20.7998 14.8443C20.3839 14.2898 19.7212 14.2763 19.0607 14.4049C18.4123 14.5311 17.5662 14.8334 16.527 15.2047L16.4059 15.2479C15.5179 15.5651 13.7479 16.1125 12.4519 16.5132L12.4515 16.5133C12.1024 16.6213 11.7877 16.7185 11.5339 16.7979C11.4558 16.8223 11.3859 16.8678 11.332 16.9294L9.13145 19.4443L8.66645 19.4443V18.2221H3.77759V24.4443H4.66648V19.111H7.77759V27.5554H6.88872V28.4443H8.66645V26.8887H18.1109C18.1215 26.8887 18.1321 26.8884 18.1426 26.8876C18.6919 26.8484 20.2969 26.6353 22.0225 26.0903C22.2203 26.0279 22.4121 25.9677 22.5974 25.9095L22.5977 25.9094C23.1983 25.7207 23.7306 25.5535 24.1789 25.4013C24.7573 25.2047 25.2383 25.0195 25.5618 24.8254C25.6043 24.7999 25.6422 24.7675 25.674 24.7295L30.2296 19.2851C30.3561 19.1339 30.3679 18.9174 30.2585 18.7533C29.88 18.1855 28.6503 17.2775 27.0815 17.8005C26.5371 17.9819 26.0049 18.4035 25.508 18.8909C25.0347 19.3553 24.554 19.9197 24.0838 20.4919L20.6834 21.3162L17.8142 20.394L17.1657 19.6158C17.2647 19.5736 17.3641 19.5315 17.4639 19.4893C17.6973 19.3905 17.9335 19.2905 18.1751 19.1849C18.6848 18.9621 19.1832 18.7288 19.5687 18.4879C20.0985 18.1567 20.5979 17.5548 20.879 16.9146C21.1546 16.2869 21.2759 15.4791 20.7998 14.8443ZM8.66645 25.9999H18.0947C18.5987 25.9619 20.1197 25.7591 21.7549 25.2427C21.9573 25.1788 22.1521 25.1176 22.3391 25.0589C22.9369 24.8711 23.4553 24.7083 23.893 24.5596C24.4271 24.3781 24.805 24.2293 25.0431 24.0984L29.3005 19.0102C28.9343 18.6958 28.2271 18.3556 27.3626 18.6437C27.0181 18.7585 26.6058 19.0593 26.1305 19.5255C25.6635 19.9836 25.1769 20.5593 24.6771 21.1702C24.6159 21.2451 24.5319 21.2979 24.4379 21.3207L20.7712 22.2096C20.6917 22.2289 20.6084 22.2258 20.5305 22.2007L17.4194 21.2007C17.3391 21.175 17.2679 21.1269 17.2139 21.0621L16.1029 19.7288C16.0137 19.6218 15.9798 19.4791 16.0114 19.3435C16.043 19.2077 16.1365 19.0947 16.2637 19.0381C16.5367 18.9169 16.8377 18.7893 17.1344 18.6635C17.3709 18.5632 17.6047 18.4641 17.819 18.3704C18.326 18.1488 18.772 17.9375 19.0976 17.7341C19.4567 17.5097 19.8461 17.056 20.0651 16.5573C20.2895 16.0462 20.2793 15.6317 20.0887 15.3777C20.0045 15.2655 19.834 15.1599 19.2306 15.2774C18.6496 15.3905 17.8583 15.6731 16.759 16.0657L16.7049 16.0851C15.7963 16.4096 13.9936 16.9669 12.6977 17.3676C12.4073 17.4574 12.1422 17.5394 11.9185 17.6091L9.66765 20.1814C9.58325 20.2779 9.46132 20.3332 9.33312 20.3332H8.66645V25.9999Z" fill="#616161"/>
<path fill-rule="evenodd" clip-rule="evenodd" d="M21.5557 3.66663C21.5557 2.13255 22.7991 0.888855 24.3331 0.888855C25.8677 0.888855 27.1113 2.13247 27.1113 3.66663C27.1113 5.20079 25.8677 6.44441 24.3331 6.44441C22.7991 6.44441 21.5557 5.20071 21.5557 3.66663ZM24.3331 1.77775C23.2901 1.77775 22.4446 2.62336 22.4446 3.66663C22.4446 4.70991 23.2901 5.55552 24.3331 5.55552C25.3768 5.55552 26.2223 4.70983 26.2223 3.66663C26.2223 2.62344 25.3768 1.77775 24.3331 1.77775Z" fill="#03A9F4"/>
<path fill-rule="evenodd" clip-rule="evenodd" d="M17.8891 6.22198C16.3551 6.22198 15.1111 7.46556 15.1111 8.99976C15.1111 10.534 16.3551 11.7776 17.8891 11.7776C19.4233 11.7776 20.6666 10.5338 20.6666 8.99976C20.6666 7.4657 19.4233 6.22198 17.8891 6.22198ZM15.9999 8.99976C15.9999 7.95663 16.8459 7.1109 17.8891 7.1109C18.9323 7.1109 19.7777 7.9565 19.7777 8.99976C19.7777 10.043 18.9323 10.8886 17.8891 10.8886C16.8458 10.8886 15.9999 10.0429 15.9999 8.99976Z" fill="#03A9F4"/>
<path fill-rule="evenodd" clip-rule="evenodd" d="M26.9996 9.11108C25.4656 9.11108 24.2222 10.355 24.2222 11.8888C24.2222 13.4228 25.4656 14.6666 26.9996 14.6666C28.5342 14.6666 29.7778 13.4229 29.7778 11.8888C29.7778 10.3548 28.5342 9.11108 26.9996 9.11108ZM25.1111 11.8888C25.1111 10.8457 25.9567 9.99995 26.9996 9.99995C28.0433 9.99995 28.8888 10.8458 28.8888 11.8888C28.8888 12.932 28.0433 13.7778 26.9996 13.7778C25.9567 13.7778 25.1111 12.932 25.1111 11.8888Z" fill="#03A9F4"/>
<path d="M6 29.3334H2V25.3334H6V29.3334Z" fill="#03A9F4"/>
</svg>
