<svg width="32" height="32" viewBox="0 0 32 32" fill="none" xmlns="http://www.w3.org/2000/svg">
<path fill-rule="evenodd" clip-rule="evenodd" d="M9.55561 24.7535V18.889H29.1112V23.1113H30.0001V13.9134C30.0001 12.5641 29.039 11.5557 27.6974 11.5557H10.9694C9.62782 11.5557 8.66675 12.5641 8.66675 13.9134V24.7535C8.66675 26.1028 9.62782 27.1113 10.9694 27.1113H26.0001V26.2223H10.9694C10.143 26.2223 9.55561 25.6365 9.55561 24.7535ZM9.55561 13.9134C9.55561 13.0304 10.143 12.4446 10.9694 12.4446H27.6974C28.5238 12.4446 29.1112 13.0304 29.1112 13.9134V14.889H9.55561V13.9134ZM9.55561 15.7779V18.0001H29.1112V15.7779H9.55561Z" fill="#616161"/>
<path d="M11.1111 21.5556H15.3333V20.6667H11.1111V21.5556Z" fill="#616161"/>
<path d="M2.50142 10.0101L18.2668 4.07263C18.9266 3.84746 19.6329 4.15909 20.0233 4.9472L22.0234 10.8572L22.8654 10.5722L20.8474 4.6095L20.8355 4.58495C20.2969 3.46643 19.1583 2.82381 17.9709 3.23438L17.9652 3.23636L2.19902 9.17418C1.07871 9.56578 0.280206 10.9309 0.856679 12.1668L4.40193 22.4094C4.78024 23.5766 6.10055 24.3858 7.44185 23.8133L8.02665 23.6617L7.80358 22.8012L7.14938 22.9709L7.11585 22.9858C6.3077 23.3453 5.48644 22.8784 5.24654 22.1324L5.24504 22.1277L1.68029 11.8287L1.6691 11.8054C1.34135 11.1255 1.77301 10.2622 2.49575 10.012L2.50142 10.0101Z" fill="#03A9F4"/>
<path d="M30.8889 28H26.8889V24H30.8889V28Z" fill="#03A9F4"/>
</svg>
