<svg width="32" height="32" viewBox="0 0 32 32" fill="none" xmlns="http://www.w3.org/2000/svg">
<rect x="5.59998" y="9.59998" width="22.4" height="13.6" fill="white"/>
<path d="M27.9999 8.53333H16.7999C16.3583 8.53333 15.9999 8.905 15.9999 9.36295C15.9999 9.82091 16.3583 10.1926 16.7999 10.1926H25.6687L20.7535 14.1566L17.2287 11.8319L16.3711 13.2323L20.3711 15.8706C20.5007 15.9569 20.6511 16 20.7999 16C20.9727 16 21.1471 15.9419 21.2911 15.8258L27.1999 11.0587V21.8074H16.7999C16.3583 21.8074 15.9999 22.1791 15.9999 22.637C15.9999 23.095 16.3583 23.4667 16.7999 23.4667H27.9999C28.4415 23.4667 28.7999 23.095 28.7999 22.637V9.36295C28.7999 8.905 28.4415 8.53333 27.9999 8.53333Z" fill="#006FC4"/>
<path d="M17.2476 3.39736C17.0661 3.23523 16.8223 3.16526 16.593 3.21646L3.84985 5.77635C3.47234 5.85144 3.19995 6.20299 3.19995 6.61428V25.3868C3.19995 25.7964 3.47234 26.1496 3.84985 26.2247L16.593 28.7846C16.6407 28.7948 16.6901 28.7999 16.7395 28.7999C16.9243 28.7999 17.1043 28.7317 17.2476 28.6037C17.4308 28.4416 17.536 28.1992 17.536 27.9467V4.0544C17.536 3.80011 17.4308 3.55948 17.2476 3.39736Z" fill="#006DC3"/>
<path d="M10.4 22.5418C8.19522 22.5418 6.40002 20.1752 6.40002 17.267C6.40002 14.3589 8.19522 11.9923 10.4 11.9923C12.6048 11.9923 14.4 14.3589 14.4 17.267C14.4 20.1752 12.6048 22.5418 10.4 22.5418ZM10.4 13.7506C9.07682 13.7506 8.00002 15.3277 8.00002 17.267C8.00002 19.2064 9.07682 20.7835 10.4 20.7835C11.7232 20.7835 12.8 19.2064 12.8 17.267C12.8 15.3277 11.7232 13.7506 10.4 13.7506Z" fill="#EFEFEF"/>
</svg>
