<svg width="20" height="21" viewBox="0 0 20 21" fill="none" xmlns="http://www.w3.org/2000/svg">
<g clip-path="url(#clip0)">
<path d="M17.0829 5.0172L13.0828 1.01719C13.0078 0.942189 12.9063 0.900002 12.8 0.900002H4.40002C3.51761 0.900002 2.80005 1.61756 2.80005 2.50001V18.5C2.80005 19.3824 3.51761 20.1 4.40006 20.1H15.6001C16.4825 20.1 17.2 19.3824 17.2 18.5V5.29999C17.2 5.19375 17.1579 5.0922 17.0829 5.0172ZM13.2 2.26564L15.8344 4.90001H14C13.559 4.90001 13.2 4.54103 13.2 4.10003V2.26564ZM16.4001 18.5C16.4001 18.941 16.0411 19.3 15.6001 19.3H4.40006C3.95906 19.3 3.60007 18.941 3.60007 18.5V2.50001C3.60007 2.05901 3.95906 1.70003 4.40006 1.70003H12.4V4.10003C12.4 4.98244 13.1176 5.7 14.0001 5.7H16.4001V18.5Z" fill="#616161"/>
<path d="M12.0395 12.6426C11.6692 12.3511 11.3173 12.0516 11.0829 11.8172C10.7782 11.5125 10.5067 11.2172 10.2708 10.9359C10.6388 9.79882 10.8001 9.21251 10.8001 8.89998C10.8001 7.57226 10.3204 7.29997 9.6001 7.29997C9.05282 7.29997 8.4001 7.58433 8.4001 8.93827C8.4001 9.53516 8.72706 10.2598 9.3751 11.1019C9.21651 11.5859 9.03017 12.1441 8.82081 12.7734C8.72001 13.0754 8.61066 13.355 8.49501 13.6136C8.40089 13.6555 8.30946 13.698 8.22119 13.7422C7.90322 13.9012 7.60127 14.0441 7.32119 14.1769C6.04382 14.7816 5.20007 15.1816 5.20007 15.9715C5.20007 16.5449 5.82314 16.9 6.40007 16.9C7.14381 16.9 8.26686 15.9066 9.08717 14.2331C9.93872 13.8972 10.9973 13.6484 11.8329 13.4925C12.5024 14.0074 13.2419 14.5 13.6001 14.5C14.5919 14.5 14.8001 13.9265 14.8001 13.4456C14.8001 12.4999 13.7196 12.4999 13.2001 12.4999C13.0387 12.5 12.6059 12.5476 12.0395 12.6426ZM6.40007 16.1C6.17155 16.1 6.01686 15.9922 6.00006 15.9715C6.00006 15.6878 6.84576 15.2871 7.66375 14.8996C7.71569 14.875 7.76845 14.8504 7.82196 14.825C7.22117 15.6961 6.62702 16.1 6.40007 16.1ZM9.20009 8.93827C9.20009 8.1 9.46026 8.1 9.6001 8.1C9.88292 8.1 10.0001 8.1 10.0001 8.89998C10.0001 9.06873 9.88761 9.49061 9.68174 10.1492C9.36764 9.66562 9.20009 9.25117 9.20009 8.93827ZM9.50672 13.2375C9.53174 13.168 9.55596 13.0977 9.5794 13.0265C9.72782 12.5812 9.86144 12.1812 9.98057 11.8211C10.1466 12.0039 10.3255 12.191 10.5173 12.3828C10.5923 12.4578 10.7782 12.6265 11.0259 12.8378C10.5329 12.9453 10.0083 13.0785 9.50672 13.2375ZM14.0001 13.4457C14.0001 13.6254 14.0001 13.7 13.629 13.7023C13.52 13.6789 13.268 13.5305 12.9571 13.3187C13.07 13.3063 13.1532 13.3 13.2001 13.3C13.7911 13.3 13.9587 13.3578 14.0001 13.4457Z" fill="#03A9F4"/>
</g>
<defs>
<clipPath id="clip0">
<rect width="19.2" height="19.2" fill="white" transform="translate(0.400024 0.900002)"/>
</clipPath>
</defs>
</svg>
