<svg width="41" height="40" viewBox="0 0 41 40" fill="none" xmlns="http://www.w3.org/2000/svg">
<path fill-rule="evenodd" clip-rule="evenodd" d="M33.2781 33.8889V31.6667H34.3892V33.8889H33.2781Z" fill="#616161"/>
<path d="M6.05569 31.111V33.3332H8.27791V31.6666H9.389V33.3332H12.4446V31.6666H13.5557V33.3332H16.6112V31.6666H17.7223V33.3332H20.7779V31.6666H21.889V33.3332H24.9446V31.6666H26.0557V33.3332H29.1112V31.6666H30.2223V33.3332H31.0557V34.4443H5.50013C5.19331 34.4443 4.94458 34.1957 4.94458 33.8888V6.11102H6.05569V9.16657H7.72236V10.2777H6.05569V13.3332H7.72236V14.4443H6.05569V17.4999H7.72236V18.611H6.05569V21.6666H7.72236V22.7777H6.05569V25.8332H7.72236V26.9443H6.05569V29.9999H7.72236V31.111H6.05569Z" fill="#616161"/>
<path d="M30.5657 20.2779C30.4135 20.2779 30.2679 20.3404 30.1631 20.4508L24.9215 25.9667H21.4606L19.6301 23.3179C19.5263 23.1677 19.3555 23.0781 19.1731 23.0781H15.0982C14.9223 23.0781 14.7567 23.1615 14.652 23.3028L12.158 26.6668H9.11133V27.7779H12.4377C12.6137 27.7779 12.7792 27.6946 12.884 27.5532L15.378 24.1893H18.8817L20.7122 26.8381C20.8158 26.9882 20.9867 27.0779 21.1692 27.0779H25.16C25.3122 27.0779 25.4578 27.0154 25.5627 26.905L30.8042 21.3891H35.2224V20.2779H30.5657Z" fill="#616161"/>
<path d="M17.1777 11.9446C16.994 11.9446 16.8222 12.0353 16.7187 12.187L15.5539 13.8937H13.1028C12.934 13.8937 12.7743 13.9706 12.6689 14.1024L10.1752 17.2224H9.11133V18.3335H10.4423C10.6112 18.3335 10.7709 18.2567 10.8763 18.1248L13.37 15.0048H15.8474C16.031 15.0048 16.2027 14.9142 16.3062 14.7625L17.4711 13.0557H19.5175L22.0178 17.4053C22.1169 17.5777 22.3006 17.684 22.4994 17.684H25.1607C25.3296 17.684 25.4892 17.6072 25.5947 17.4753L28.0884 14.3554H28.926L30.8427 16.227C30.9466 16.3283 31.0858 16.3851 31.2309 16.3851H35.2224V15.274H31.4572L29.5404 13.4023C29.4366 13.301 29.2973 13.2442 29.1522 13.2442H27.8212C27.6524 13.2442 27.4927 13.3211 27.3873 13.453L24.8936 16.5729H22.8209L20.3206 12.2233C20.2215 12.0509 20.0377 11.9446 19.8389 11.9446H17.1777Z" fill="#03A9F4"/>
<path d="M37.1667 35.5554H32.1667V30.5554H37.1667V35.5554Z" fill="#03A9F4"/>
</svg>
