<svg width="28" height="28" viewBox="0 0 28 28" fill="none" xmlns="http://www.w3.org/2000/svg">
<path fill-rule="evenodd" clip-rule="evenodd" d="M11.6 3.33335C7.0344 3.33335 3.33329 7.03446 3.33329 11.6C3.33329 16.1656 7.0344 19.8667 11.6 19.8667C16.1656 19.8667 19.8666 16.1656 19.8666 11.6C19.8666 7.03446 16.1656 3.33335 11.6 3.33335ZM0.666626 11.6C0.666626 5.5617 5.56164 0.666687 11.6 0.666687C17.6382 0.666687 22.5333 5.5617 22.5333 11.6C22.5333 17.6383 17.6382 22.5334 11.6 22.5334C5.56164 22.5334 0.666626 17.6383 0.666626 11.6ZM21.2 19.3144L27.8856 26L26 27.8856L19.3144 21.2L21.2 19.3144ZM9.14867 9.14873C9.79879 8.49859 10.6805 8.13337 11.6 8.13337V5.4667C9.97331 5.4667 8.41327 6.11289 7.26304 7.2631C6.11283 8.41333 5.46664 9.97337 5.46664 11.6H8.13331C8.13331 10.6806 8.49853 9.79885 9.14867 9.14873Z" fill="#03A9F4"/>
</svg>
