<svg width="21" height="21" viewBox="0 0 21 21" fill="none" xmlns="http://www.w3.org/2000/svg">
<path fill-rule="evenodd" clip-rule="evenodd" d="M8.2 2.50001C4.77583 2.50001 2 5.27584 2 8.70001C2 12.1242 4.77583 14.9 8.2 14.9C11.6242 14.9 14.4 12.1242 14.4 8.70001C14.4 5.27584 11.6242 2.50001 8.2 2.50001ZM0 8.70001C0 4.17127 3.67126 0.500008 8.2 0.500008C12.7287 0.500008 16.4 4.17127 16.4 8.70001C16.4 13.2287 12.7287 16.9 8.2 16.9C3.67126 16.9 0 13.2287 0 8.70001ZM15.4 14.4858L20.4142 19.5L19 20.9142L13.9858 15.9L15.4 14.4858ZM6.36153 6.86154C6.84912 6.37394 7.51044 6.10002 8.2 6.10002V4.10002C6.98001 4.10002 5.80998 4.58466 4.94731 5.44732C4.08465 6.30999 3.60001 7.48002 3.60001 8.70001H5.60001C5.60001 8.01045 5.87393 7.34913 6.36153 6.86154Z" fill="#616161"/>
</svg>
