<svg width="80" height="80" viewBox="0 0 80 80" fill="none" xmlns="http://www.w3.org/2000/svg">
<path d="M55.5554 45.7778V49.3334H57.3332V45.7778H55.5554Z" fill="white"/>
<path d="M55.5554 39.5552H57.3332V43.1108H55.5554V39.5552Z" fill="white"/>
<path d="M55.5554 52V55.5555H57.3332V52H55.5554Z" fill="white"/>
<path d="M55.5554 61.7778V58.2222H57.3332V61.7778H55.5554Z" fill="white"/>
<path d="M46.2219 53.333H34.2219V51.5552H46.2219V53.333Z" fill="white"/>
<path d="M34.2219 60H46.2219V58.2222H34.2219V60Z" fill="white"/>
<path fill-rule="evenodd" clip-rule="evenodd" d="M41.3331 9.77783V18.6667H43.5554C44.0463 18.6667 44.4443 19.0647 44.4443 19.5556V25.3334H47.9998C48.4907 25.3334 48.8887 25.7314 48.8887 26.2222V27.5556H59.9998C60.4907 27.5556 60.8887 27.9536 60.8887 28.4445V33.7778H62.2221C62.713 33.7778 63.111 34.1758 63.111 34.6668V66.6668C63.111 67.1577 62.713 67.5556 62.2221 67.5556H29.3331C28.8422 67.5556 28.4443 67.1577 28.4443 66.6668V32.4445C28.4443 31.9536 28.8422 31.5556 29.3331 31.5556H31.5554V26.2222C31.5554 25.7314 31.9534 25.3334 32.4443 25.3334H35.5554V19.5556C35.5554 19.0647 35.9534 18.6667 36.4443 18.6667H39.5554V9.77783H41.3331ZM59.111 29.3334H48.8887V31.5556H50.2221C50.713 31.5556 51.111 31.9536 51.111 32.4445V33.7778H59.111V29.3334ZM51.111 65.7778H61.3331V35.5556H51.111V65.7778ZM37.3331 20.4445V24.8889H42.6665V20.4445H37.3331ZM47.111 31.5556V27.1112H33.3331V31.5556H47.111ZM49.3331 33.3334H30.2221V65.7778H49.3331V33.3334Z" fill="white"/>
<path d="M31.06 13.162C30.8924 12.9877 30.6611 12.8892 30.4193 12.8892C30.1775 12.8891 29.9461 12.9877 29.7785 13.162L17.1368 26.3096C16.9776 26.4752 16.8887 26.696 16.8887 26.9256V60.8891H18.6665V27.2838L30.4192 15.0606L30.6664 15.3177V23.3807H32.4443V14.9597C32.4443 14.73 32.3553 14.5093 32.1961 14.3437L31.06 13.162Z" fill="white"/>
<path d="M26.8885 67.5556H22.6663V65.7778H26.8885V67.5556Z" fill="white"/>
<path d="M22.6663 36.4442H24.8885V34.6665H22.6663V36.4442Z" fill="white"/>
<path d="M24.8885 41.333H22.6663V39.5552H24.8885V41.333Z" fill="white"/>
<path d="M24.8885 56H22.6663V54.2222H24.8885V56Z" fill="white"/>
<path d="M24.8885 46.2221H22.6663V44.4443H24.8885V46.2221Z" fill="white"/>
<path d="M22.6663 51.1112H24.8885V49.3335H22.6663V51.1112Z" fill="white"/>
<path d="M24.8885 60.8891H22.6663V59.1113H24.8885V60.8891Z" fill="white"/>
<path d="M46.2224 39.9999H34.2224V38.2222H46.2224V39.9999Z" fill="#03A9F4"/>
<path d="M46.2224 46.6664H34.2224V44.8887H46.2224V46.6664Z" fill="#03A9F4"/>
<path d="M20.889 71.111H12.4446V62.6665H20.889V71.111Z" fill="#03A9F4"/>
</svg>
