<svg width="40" height="40" viewBox="0 0 40 40" fill="none" xmlns="http://www.w3.org/2000/svg">
<path d="M27.7776 22.8889V24.6667H28.6665V22.8889H27.7776Z" fill="#616161"/>
<path d="M27.7776 19.7776H28.6665V21.5554H27.7776V19.7776Z" fill="#616161"/>
<path d="M27.7776 26V27.7777H28.6665V26H27.7776Z" fill="#616161"/>
<path d="M27.7776 30.8889V29.1111H28.6665V30.8889H27.7776Z" fill="#616161"/>
<path d="M23.1111 26.6666H17.1111V25.7776H23.1111V26.6666Z" fill="#616161"/>
<path d="M17.1111 30H23.1111V29.1111H17.1111V30Z" fill="#616161"/>
<path fill-rule="evenodd" clip-rule="evenodd" d="M20.6666 4.88892V9.33336H21.7777C22.0232 9.33336 22.2222 9.53235 22.2222 9.77781V12.6667H23.9999C24.2454 12.6667 24.4444 12.8657 24.4444 13.1111V13.7778H29.9999C30.2454 13.7778 30.4444 13.9768 30.4444 14.2222V16.8889H31.111C31.3565 16.8889 31.5555 17.0879 31.5555 17.3334V33.3334C31.5555 33.5788 31.3565 33.7778 31.111 33.7778H14.6666C14.4211 33.7778 14.2222 33.5788 14.2222 33.3334V16.2222C14.2222 15.9768 14.4211 15.7778 14.6666 15.7778H15.7777V13.1111C15.7777 12.8657 15.9767 12.6667 16.2222 12.6667H17.7777V9.77781C17.7777 9.53235 17.9767 9.33336 18.2222 9.33336H19.7777V4.88892H20.6666ZM29.5555 14.6667H24.4444V15.7778H25.111C25.3565 15.7778 25.5555 15.9768 25.5555 16.2222V16.8889H29.5555V14.6667ZM25.5555 32.8889H30.6666V17.7778H25.5555V32.8889ZM18.6666 10.2222V12.4444H21.3332V10.2222H18.6666ZM23.5555 15.7778V13.5556H16.6666V15.7778H23.5555ZM24.6666 16.6667H15.111V32.8889H24.6666V16.6667Z" fill="#616161"/>
<path d="M15.53 6.58093C15.4462 6.49378 15.3305 6.44452 15.2097 6.44452C15.0887 6.44451 14.9731 6.49377 14.8893 6.58092L8.56841 13.1548C8.4888 13.2376 8.44434 13.348 8.44434 13.4628V30.4445H9.33323V13.6418L15.2096 7.53022L15.3332 7.6588V11.6903H16.2221V7.4798C16.2221 7.36495 16.1777 7.25457 16.0981 7.17177L15.53 6.58093Z" fill="#616161"/>
<path d="M13.4444 33.7778H11.3333V32.8889H13.4444V33.7778Z" fill="#616161"/>
<path d="M11.3333 18.2222H12.4444V17.3333H11.3333V18.2222Z" fill="#616161"/>
<path d="M12.4444 20.6666H11.3333V19.7776H12.4444V20.6666Z" fill="#616161"/>
<path d="M12.4444 28H11.3333V27.1111H12.4444V28Z" fill="#616161"/>
<path d="M12.4444 23.1111H11.3333V22.2222H12.4444V23.1111Z" fill="#616161"/>
<path d="M11.3333 25.5556H12.4444V24.6667H11.3333V25.5556Z" fill="#616161"/>
<path d="M12.4444 30.4445H11.3333V29.5557H12.4444V30.4445Z" fill="#616161"/>
<path d="M23.1111 19.9999H17.1111V19.1111H23.1111V19.9999Z" fill="#03A9F4"/>
<path d="M23.1111 23.3333H17.1111V22.4444H23.1111V23.3333Z" fill="#03A9F4"/>
<path d="M10.4446 35.5556H6.22241V31.3333H10.4446V35.5556Z" fill="#03A9F4"/>
</svg>
