<svg width="40" height="38" viewBox="0 0 40 38" fill="none" xmlns="http://www.w3.org/2000/svg">
<path d="M37.4796 2.49095H20.8602V1.52277C20.8602 1.04772 20.475 0.662598 20 0.662598C19.5249 0.662598 19.1398 1.04772 19.1398 1.52277V2.49095H2.52042C1.57175 2.49095 0.799999 3.2627 0.799999 4.21137V5.80767C0.799999 6.75627 1.57175 7.5281 2.52042 7.5281H2.7542V26.8627C2.7542 27.8113 3.52595 28.5831 4.47462 28.5831H19.1398V31.1078L12.7653 35.7835C12.3823 36.0645 12.2994 36.6029 12.5805 36.9859C12.8616 37.369 13.3998 37.4517 13.7829 37.1708L19.1398 33.2414V36.4772C19.1398 36.9522 19.5249 37.3374 20 37.3374C20.4751 37.3374 20.8602 36.9522 20.8602 36.4772V33.2414L26.2171 37.1708C26.3704 37.2832 26.5486 37.3374 26.7252 37.3374C26.9899 37.3374 27.251 37.2157 27.4195 36.986C27.7005 36.603 27.6177 36.0646 27.2346 35.7836L20.8602 31.1079V28.5832H35.5254C36.474 28.5832 37.2458 27.8115 37.2458 26.8628V7.52802H37.4796C38.4282 7.52802 39.2 6.75627 39.2 5.8076V4.21137C39.2 3.2627 38.4282 2.49095 37.4796 2.49095ZM35.5254 26.8626H4.47462V7.52802H35.5254V26.8626H35.5254ZM37.4796 5.8076H2.52042V4.21137H37.4796V5.8076H37.4796Z" fill="#616161"/>
</svg>
