<svg width="20" height="20" viewBox="0 0 20 20" fill="none" xmlns="http://www.w3.org/2000/svg">
<path d="M18.832 0.399902H1.16802C0.743224 0.399902 0.400024 0.743102 0.400024 1.1679V18.8319C0.400024 19.2567 0.743224 19.5999 1.16802 19.5999H18.832C19.2568 19.5999 19.6 19.2567 19.6 18.8319V1.1679C19.6 0.743102 19.2568 0.399902 18.832 0.399902ZM16.6144 6.0039H15.0808C13.8784 6.0039 13.6456 6.5751 13.6456 7.4151V9.2655H16.516L16.1416 12.1623H13.6456V19.5999H10.6528V12.1647H8.14962V9.2655H10.6528V7.1295C10.6528 4.6503 12.1672 3.2991 14.38 3.2991C15.4408 3.2991 16.3504 3.3783 16.6168 3.4143V6.0039H16.6144Z" fill="#03A9F4"/>
</svg>
