<svg width="40" height="40" viewBox="0 0 40 40" fill="none" xmlns="http://www.w3.org/2000/svg">
<g clip-path="url(#clip0)">
<path d="M37.4796 3.49095H20.8602V2.52277C20.8602 2.04772 20.4751 1.6626 20 1.6626C19.525 1.6626 19.1398 2.04772 19.1398 2.52277V3.49095H2.52043C1.57175 3.49095 0.800003 4.2627 0.800003 5.21137V6.80767C0.800003 7.75627 1.57175 8.5281 2.52043 8.5281H2.7542V27.8627C2.7542 28.8113 3.52595 29.5831 4.47463 29.5831H19.1398V32.1078L12.7654 36.7835C12.3823 37.0645 12.2995 37.6029 12.5805 37.9859C12.8616 38.369 13.3999 38.4517 13.7829 38.1708L19.1398 34.2414V37.4772C19.1398 37.9522 19.525 38.3374 20 38.3374C20.4751 38.3374 20.8602 37.9522 20.8602 37.4772V34.2414L26.2171 38.1708C26.3704 38.2832 26.5486 38.3374 26.7253 38.3374C26.9899 38.3374 27.251 38.2157 27.4195 37.986C27.7006 37.603 27.6178 37.0646 27.2347 36.7836L20.8602 32.1079V29.5832H35.5254C36.474 29.5832 37.2458 28.8115 37.2458 27.8628V8.52802H37.4796C38.4282 8.52802 39.2 7.75627 39.2 6.8076V5.21137C39.2 4.2627 38.4282 3.49095 37.4796 3.49095ZM35.5254 27.8626H4.47463V8.52802H35.5255V27.8626H35.5254ZM37.4796 6.8076H2.52043V5.21137H37.4797V6.8076H37.4796Z" fill="#616161"/>
<path d="M19.9836 11.0189C19.5561 11.0189 19.2095 11.3655 19.2095 11.7931V17.7298H13.2727C12.8451 17.7298 12.4985 18.0764 12.4985 18.504C12.4985 22.6313 15.8564 25.9891 19.9837 25.9891C24.111 25.9891 27.469 22.6312 27.469 18.504C27.469 14.3767 24.111 11.0189 19.9836 11.0189ZM19.9836 24.4408C16.9724 24.4408 14.4776 22.1873 14.0971 19.2782H19.9836C20.4112 19.2782 20.7578 18.9316 20.7578 18.5041V12.6175C23.6669 12.9981 25.9204 15.4928 25.9204 18.5041C25.9205 21.7776 23.2572 24.4408 19.9836 24.4408Z" fill="#03A9F4"/>
<path d="M17.3634 10.2181C14.2395 10.2181 11.698 12.7599 11.698 15.8842C11.698 16.3118 12.0445 16.6583 12.4721 16.6583H17.3634C17.791 16.6583 18.1375 16.3118 18.1375 15.8842V10.9922C18.1376 10.5647 17.791 10.2181 17.3634 10.2181ZM16.5892 15.11H13.3193C13.6345 13.4591 14.9386 12.1548 16.5892 11.8395V15.11Z" fill="#03A9F4"/>
</g>
<defs>
<clipPath id="clip0">
<rect width="38.4" height="38.4" fill="white" transform="translate(0.800003 0.799988)"/>
</clipPath>
</defs>
</svg>
