<svg width="20" height="20" viewBox="0 0 20 20" fill="none" xmlns="http://www.w3.org/2000/svg">
<path d="M9.99744 6.79854C8.23469 6.79854 6.79614 8.23711 6.79614 9.9999C6.79614 11.7627 8.23469 13.2013 9.99744 13.2013C11.7602 13.2013 13.1987 11.7627 13.1987 9.9999C13.1987 8.23711 11.7602 6.79854 9.99744 6.79854ZM19.599 9.9999C19.599 8.67421 19.611 7.36052 19.5365 6.03722C19.4621 4.50019 19.1114 3.13606 17.9875 2.01211C16.8612 0.885744 15.4995 0.537509 13.9624 0.463059C12.6368 0.388609 11.3231 0.400617 9.99984 0.400617C8.67417 0.400617 7.36051 0.388609 6.03724 0.463059C4.50023 0.537509 3.13614 0.888146 2.0122 2.01211C0.885857 3.13847 0.537629 4.50019 0.46318 6.03722C0.388731 7.36292 0.400739 8.67661 0.400739 9.9999C0.400739 11.3232 0.388731 12.6393 0.46318 13.9626C0.537629 15.4996 0.888259 16.8637 2.0122 17.9877C3.13854 19.1141 4.50023 19.4623 6.03724 19.5367C7.36291 19.6112 8.67658 19.5992 9.99984 19.5992C11.3255 19.5992 12.6392 19.6112 13.9624 19.5367C15.4995 19.4623 16.8636 19.1117 17.9875 17.9877C19.1138 16.8613 19.4621 15.4996 19.5365 13.9626C19.6134 12.6393 19.599 11.3256 19.599 9.9999ZM9.99744 14.9256C7.27165 14.9256 5.07181 12.7257 5.07181 9.9999C5.07181 7.27406 7.27165 5.07417 9.99744 5.07417C12.7232 5.07417 14.9231 7.27406 14.9231 9.9999C14.9231 12.7257 12.7232 14.9256 9.99744 14.9256ZM15.1248 6.02281C14.4884 6.02281 13.9745 5.50887 13.9745 4.87244C13.9745 4.23601 14.4884 3.72206 15.1248 3.72206C15.7612 3.72206 16.2752 4.23601 16.2752 4.87244C16.2754 5.02356 16.2457 5.17324 16.188 5.31289C16.1302 5.45255 16.0455 5.57944 15.9387 5.6863C15.8318 5.79316 15.7049 5.87789 15.5653 5.93563C15.4256 5.99338 15.2759 6.023 15.1248 6.02281Z" fill="#03A9F4"/>
</svg>
