<svg width="36" height="30" viewBox="0 0 36 30" fill="none" xmlns="http://www.w3.org/2000/svg">
<path fill-rule="evenodd" clip-rule="evenodd" d="M4.66656 0C3.43869 0 2.26113 0.487767 1.39291 1.35598C0.524693 2.22422 0.0369263 3.40178 0.0369263 4.62963V10.0635L17.9998 19.8615L35.9628 10.0635V4.62963C35.9628 3.40177 35.4751 2.22422 34.6068 1.35598C33.7386 0.487767 32.5611 0 31.3331 0H4.66656ZM3.74993 3.71302C3.99304 3.4699 4.32276 3.33333 4.66656 3.33333H31.3331C31.677 3.33333 32.0068 3.4699 32.2498 3.71302C32.493 3.95612 32.6295 4.28583 32.6295 4.62963V8.08468L17.9998 16.0645L3.37026 8.08468V4.62963C3.37026 4.28583 3.50683 3.95612 3.74993 3.71302ZM3.37026 25.3703V14.8148H0.0369263V25.3703C0.0369263 26.5983 0.524693 27.7758 1.39291 28.644C2.26113 29.5123 3.43869 30 4.66656 30H31.3331C32.5611 30 33.7386 29.5123 34.6068 28.644C35.4751 27.7758 35.9628 26.5983 35.9628 25.3703V14.8148H32.6295V25.3703C32.6295 25.7142 32.493 26.044 32.2498 26.287C32.0068 26.5302 31.677 26.6667 31.3331 26.6667H4.66656C4.32276 26.6667 3.99304 26.5302 3.74993 26.287C3.50683 26.044 3.37026 25.7142 3.37026 25.3703Z" fill="#A9A9A9"/>
</svg>
