<svg width="20" height="20" viewBox="0 0 20 20" fill="none" xmlns="http://www.w3.org/2000/svg">
<path d="M18.832 0.399902H1.16802C0.743224 0.399902 0.400024 0.743102 0.400024 1.1679V18.8319C0.400024 19.2567 0.743224 19.5999 1.16802 19.5999H18.832C19.2568 19.5999 19.6 19.2567 19.6 18.8319V1.1679C19.6 0.743102 19.2568 0.399902 18.832 0.399902ZM6.09522 16.7607H3.24642V7.5975H6.09522V16.7607ZM4.67202 6.3447C4.34545 6.3447 4.02621 6.24786 3.75467 6.06642C3.48313 5.88499 3.27149 5.62711 3.14651 5.32539C3.02154 5.02367 2.98884 4.69167 3.05255 4.37137C3.11626 4.05107 3.27353 3.75685 3.50445 3.52593C3.73537 3.295 4.02959 3.13774 4.34989 3.07403C4.67019 3.01032 5.00219 3.04302 5.30391 3.16799C5.60563 3.29297 5.86351 3.50461 6.04495 3.77614C6.22638 4.04768 6.32322 4.36693 6.32322 4.6935C6.32082 5.6055 5.58162 6.3447 4.67202 6.3447ZM16.7608 16.7607H13.9144V12.3039C13.9144 11.2407 13.8952 9.8751 12.4336 9.8751C10.9528 9.8751 10.7248 11.0319 10.7248 12.2271V16.7607H7.88082V7.5975H10.612V8.8503H10.6504C11.0296 8.1303 11.9584 7.3695 13.3456 7.3695C16.2304 7.3695 16.7608 9.2679 16.7608 11.7351V16.7607Z" fill="#03A9F4"/>
</svg>
