<svg width="38" height="38" viewBox="0 0 38 38" fill="none" xmlns="http://www.w3.org/2000/svg">
<path fill-rule="evenodd" clip-rule="evenodd" d="M20.3637 0.666748H22.0303C30.4827 0.666748 37.3333 7.51748 37.3333 15.9697V17.6364H34V15.9697C34 9.35843 28.6417 4.00008 22.0303 4.00008H20.3637V0.666748ZM6.87878 1.49153L16.8115 11.4243L12.2661 15.9697L22.0303 25.7339L26.5758 21.1886L36.5085 31.1212L30.2965 37.3334H29.606C13.6235 37.3334 0.666664 24.3766 0.666664 8.39402V7.70366L6.87878 1.49153ZM4.0089 9.07548C4.36423 22.6757 15.3244 33.6359 28.9247 33.9912L31.7945 31.1212L26.5758 25.9026L22.0303 30.4481L7.55206 15.9697L12.0975 11.4243L6.87878 6.20558L4.0089 9.07548ZM22.0303 6.72733H20.3637V10.0607H22.0303C25.2932 10.0607 27.9393 12.7069 27.9393 15.9697V17.6364H31.2727V15.9697C31.2727 10.8659 27.1342 6.72733 22.0303 6.72733Z" fill="#A9A9A9"/>
</svg>
