<svg width="20" height="20" viewBox="0 0 20 20" fill="none" xmlns="http://www.w3.org/2000/svg">
<path d="M0.400024 0.399902V19.5999H19.6V0.399902H0.400024ZM11.56 4.1199H12.28V7.3599C12.28 7.4799 12.28 7.5999 12.4 7.5999C12.52 7.5999 12.64 7.4799 12.88 7.2399V4.1199H13.6V8.0799H12.88V7.7199C12.64 8.0799 12.28 8.1999 12.04 8.1999C11.8 8.1999 11.68 8.0799 11.56 7.9599C11.56 7.8399 11.44 7.5999 11.44 7.3599V4.1199H11.56ZM8.80002 5.4399C8.80002 5.0799 8.80002 4.7199 9.04002 4.4799C9.28002 4.2399 9.52002 4.1199 9.88002 4.1199C10.24 4.1199 10.48 4.2399 10.72 4.4799C10.84 4.7199 10.96 4.9599 10.96 5.4399V6.8799C10.96 7.3599 10.84 7.5999 10.72 7.8399C10.48 8.0799 10.24 8.1999 9.88002 8.1999C9.52002 8.1999 9.28002 8.0799 9.04002 7.8399C8.80002 7.5999 8.80002 7.3599 8.80002 6.8799V5.4399ZM6.76002 2.7999L7.36002 4.9599L7.96002 2.7999H8.80002L7.84002 6.0399V8.1999H7.00002V6.0399C6.88002 5.5599 6.76002 5.0799 6.52002 4.2399C6.28002 3.7599 6.16002 3.2799 5.92002 2.7999H6.76002ZM15.76 15.8799C15.64 16.4799 15.04 16.9599 14.44 17.0799C13 17.1999 11.44 17.1999 10 17.1999C8.56002 17.1999 7.00002 17.1999 5.56002 17.0799C4.96002 16.9599 4.36002 16.5999 4.24002 15.8799C4.00002 14.9199 4.00002 13.9599 4.00002 12.9999C4.00002 12.1599 4.00002 11.1999 4.24002 10.2399C4.36002 9.6399 4.96002 9.1599 5.56002 9.0399C7.00002 8.9199 8.56002 8.9199 10 8.9199C11.44 8.9199 13 8.9199 14.44 9.0399C15.04 9.1599 15.64 9.5199 15.76 10.2399C16 11.1999 16 12.1599 16 12.9999C16 13.9599 16 14.9199 15.76 15.8799Z" fill="#03A9F4"/>
</svg>
