<svg width="80" height="80" viewBox="0 0 80 80" fill="none" xmlns="http://www.w3.org/2000/svg">
<g filter="url(#filter0_d)">
<path fill-rule="evenodd" clip-rule="evenodd" d="M52.4442 49.7777H30.2219V48H52.4442V49.7777Z" fill="white"/>
<path fill-rule="evenodd" clip-rule="evenodd" d="M24.4927 27.4568C26.6297 25.9614 28.8341 24.8889 31.5843 24.8889H41.5563C46.5367 24.8889 51.0609 27.9211 55.6949 32.6473C58.9896 33.1703 62.6809 34.3741 65.5923 35.8139C67.0904 36.5548 68.4213 37.3773 69.3923 38.2301C70.3189 39.0441 71.1111 40.0548 71.1111 41.1857V48.8889C71.1111 49.3799 70.7132 49.7779 70.2223 49.7779H63.3724C62.7032 52.5665 60.2759 54.6667 57.3327 54.6667C53.8623 54.6667 51.1111 51.7472 51.1111 48.2223C51.1111 44.6973 53.8623 41.7779 57.3327 41.7779C60.7296 41.7779 63.4391 44.5752 63.5519 48H69.3333V41.1857C69.3333 40.8715 69.074 40.3169 68.2189 39.5657C67.4081 38.8535 66.2269 38.1111 64.8041 37.4075C61.9619 36.0019 58.3119 34.8276 55.1371 34.3604C54.9436 34.332 54.7648 34.2405 54.6287 34.1001C49.9881 29.32 45.8487 26.6666 41.5563 26.6666H31.5843C29.3492 26.6666 27.5033 27.52 25.5119 28.9133C24.5099 29.6144 23.4927 30.4364 22.3725 31.3433L22.3363 31.3726C21.2334 32.2656 20.0396 33.2321 18.7082 34.2L17.6628 32.762C18.9567 31.8215 20.1201 30.8795 21.2302 29.9808L21.2538 29.9616C22.3637 29.0631 23.4303 28.2 24.4927 27.4568ZM57.3327 43.5556C54.912 43.5556 52.8889 45.6099 52.8889 48.2223C52.8889 50.8347 54.912 52.8889 57.3327 52.8889C59.7536 52.8889 61.7777 50.8344 61.7777 48.2223C61.7777 45.6101 59.7536 43.5556 57.3327 43.5556Z" fill="white"/>
<path fill-rule="evenodd" clip-rule="evenodd" d="M12.3364 45.2469C11.9959 43.8429 11.9233 41.6745 12.0762 39.4934L13.8496 39.6178C13.7015 41.7306 13.7872 43.6862 14.0641 44.8278C14.3441 45.9825 14.8107 46.7535 15.4013 47.2401C15.9698 47.7086 16.7389 47.9841 17.7818 47.9994C17.9078 44.4846 21.0039 41.7779 24.6659 41.7779C28.4047 41.7779 31.5556 44.5994 31.5556 48.2223C31.5556 51.8453 28.4047 54.6667 24.6659 54.6667C21.4827 54.6667 18.7269 52.6214 17.9781 49.7779H17.8741C16.4715 49.7779 15.2436 49.4138 14.2707 48.6121C13.3032 47.8149 12.6792 46.6601 12.3364 45.2469ZM19.5556 48.2223C19.5556 45.7077 21.7776 43.5557 24.6659 43.5557C27.5545 43.5557 29.7777 45.7079 29.7777 48.2223C29.7777 50.7367 27.5545 52.889 24.6659 52.889C21.7776 52.889 19.5556 50.737 19.5556 48.2223Z" fill="white"/>
<path d="M16.4447 37.7778H8.4447V29.7778H16.4447V37.7778Z" fill="#03A9F4"/>
<path d="M26.3683 31.0493L29.9446 35.2221H49.7487L52.1431 34.2158L52.7458 35.65L50.2068 36.717C50.1114 36.757 50.009 36.7777 49.9055 36.7777H29.5869C29.3598 36.7777 29.1441 36.6785 28.9963 36.5061L25.1873 32.0617L26.3683 31.0493Z" fill="#03A9F4"/>
</g>
<defs>
<filter id="filter0_d" x="4" y="8" width="72" height="72" filterUnits="userSpaceOnUse" color-interpolation-filters="sRGB">
<feFlood flood-opacity="0" result="BackgroundImageFix"/>
<feColorMatrix in="SourceAlpha" type="matrix" values="0 0 0 0 0 0 0 0 0 0 0 0 0 0 0 0 0 0 127 0"/>
<feOffset dy="4"/>
<feGaussianBlur stdDeviation="2"/>
<feColorMatrix type="matrix" values="0 0 0 0 0 0 0 0 0 0 0 0 0 0 0 0 0 0 0.25 0"/>
<feBlend mode="normal" in2="BackgroundImageFix" result="effect1_dropShadow"/>
<feBlend mode="normal" in="SourceGraphic" in2="effect1_dropShadow" result="shape"/>
</filter>
</defs>
</svg>
