<svg width="80" height="80" viewBox="0 0 80 80" fill="none" xmlns="http://www.w3.org/2000/svg">
<path d="M65.8461 39.7791C65.8461 57.7585 65.8461 57.7585 65.8461 57.7585C15.3845 57.7585 15.3845 57.7585 15.3845 57.7585C15.3845 26.9358 15.3845 26.9358 15.3845 26.9358C15.3845 25.6509 16.6461 24.3672 17.9076 24.3672C29.2614 24.3672 29.2614 24.3672 29.2614 24.3672" stroke="white" stroke-width="2" stroke-miterlimit="8"/>
<path fill-rule="evenodd" clip-rule="evenodd" d="M69.5385 57.7583C11.6924 57.7583 11.6924 57.7583 11.6924 57.7583C11.6924 60.2317 11.6924 60.2317 11.6924 60.2317C11.6924 63.0143 13.893 65.1786 16.7225 65.1786C64.5084 65.1786 64.5084 65.1786 64.5084 65.1786C67.3379 65.1786 69.5385 63.0143 69.5385 60.2317V57.7583Z" stroke="white" stroke-width="2" stroke-miterlimit="8"/>
<path d="M38.769 61.4685H44.9229" stroke="white" stroke-width="2" stroke-miterlimit="8"/>
<path d="M31.3845 29.8853C31.3845 18.3258 31.3845 18.3257 31.3845 18.3257C31.3845 16.0786 32.9747 14.4734 35.1999 14.4734C65.723 14.4734 65.723 14.4734 65.723 14.4734C67.9482 14.4734 69.5384 16.0786 69.5384 18.3257C69.5384 33.7377 69.5384 33.7377 69.5384 33.7377C69.5384 35.9848 67.9482 37.59 65.723 37.59C55.5482 37.59 55.5482 37.59 55.5482 37.59C46.3285 46.9013 46.3285 46.9013 46.3285 46.9013C45.3747 47.8647 44.1021 47.2228 44.1021 45.9379C44.1021 37.59 44.1021 37.59 44.1021 37.59C39.0153 37.59 39.0153 37.59 39.0153 37.59" stroke="white" stroke-width="2" stroke-miterlimit="8"/>
<path d="M42.4614 55.285C42.4614 53.43 42.4614 53.43 42.4614 53.43C42.4614 49.7198 34.9426 47.8647 31.9999 47.8647C29.0571 47.8647 21.5383 49.7198 21.5383 53.43C21.5383 55.285 21.5383 55.285 21.5383 55.285" stroke="#03A9F4" stroke-width="2" stroke-miterlimit="8"/>
<path fill-rule="evenodd" clip-rule="evenodd" d="M31.9999 31.7874C28.8848 31.7874 26.4614 34.1915 26.4614 37.2833C26.4614 38.6585 26.4614 38.6585 26.4614 38.6585C26.4614 41.7503 28.8848 44.1545 31.9999 44.1545C35.115 44.1545 37.5384 41.7503 37.5384 38.6585C37.5384 37.2833 37.5384 37.2833 37.5384 37.2833C37.5384 34.1915 35.115 31.7874 31.9999 31.7874Z" stroke="#03A9F4" stroke-width="2" stroke-miterlimit="8"/>
<path d="M41.2307 23.1304H60.923" stroke="white" stroke-width="2" stroke-miterlimit="8"/>
<path d="M41.2307 28.0774H52.3076" stroke="white" stroke-width="2" stroke-miterlimit="8"/>
<path d="M20.3076 42.9177H9.23071V31.7873H20.3076V42.9177Z" fill="#03A9F4" stroke="white" stroke-width="2" stroke-miterlimit="8"/>
</svg>
